<?xml version="1.0" encoding="UTF-8" standalone="no"?>
<!-- Created with Inkscape (http://www.inkscape.org/) -->

<svg
   width="100mm"
   height="100mm"
   viewBox="0 0 100 100"
   version="1.1"
   id="svg5"
   inkscape:version="1.1.1 (3bf5ae0d25, 2021-09-20)"
   sodipodi:docname="hex.svg"
   xmlns:inkscape="http://www.inkscape.org/namespaces/inkscape"
   xmlns:sodipodi="http://sodipodi.sourceforge.net/DTD/sodipodi-0.dtd"
   xmlns="http://www.w3.org/2000/svg"
   xmlns:svg="http://www.w3.org/2000/svg">
  <sodipodi:namedview
     id="namedview7"
     pagecolor="#ffffff"
     bordercolor="#cccccc"
     borderopacity="1"
     inkscape:pageshadow="0"
     inkscape:pageopacity="1"
     inkscape:pagecheckerboard="0"
     inkscape:document-units="mm"
     showgrid="false"
     width="100mm"
     inkscape:zoom="1.5215769"
     inkscape:cx="186.64847"
     inkscape:cy="203.4074"
     inkscape:window-width="1920"
     inkscape:window-height="1006"
     inkscape:window-x="0"
     inkscape:window-y="0"
     inkscape:window-maximized="1"
     inkscape:current-layer="layer1" />
  <defs
     id="defs2">
    <inkscape:path-effect
       effect="fillet_chamfer"
       id="path-effect1021"
       is_visible="true"
       lpeversion="1"
       satellites_param="F,0,0,1,0,1.0583333,0,1 @ F,0,0,1,0,1.0583333,0,1 @ F,0,0,1,0,1.0583333,0,1 @ F,0,0,1,0,1.0583333,0,1 @ F,0,0,1,0,1.0583333,0,1 @ F,0,0,1,0,1.0583333,0,1 @ F,0,0,1,0,1.0583333,0,1 @ F,0,0,1,0,1.0583333,0,1 @ F,0,0,1,0,1.0583333,0,1 @ F,0,0,1,0,1.0583333,0,1 @ F,0,0,1,0,1.0583333,0,1 @ F,0,0,1,0,1.0583333,0,1 @ F,0,0,1,0,1.0583333,0,1 @ F,0,0,1,0,1.0583333,0,1 @ F,0,0,1,0,1.0583333,0,1 @ F,0,0,1,0,1.0583333,0,1 @ F,0,0,1,0,1.0583333,0,1 @ F,0,0,1,0,1.0583333,0,1"
       unit="px"
       method="auto"
       mode="F"
       radius="4"
       chamfer_steps="1"
       flexible="false"
       use_knot_distance="true"
       apply_no_radius="true"
       apply_with_radius="true"
       only_selected="false"
       hide_knots="false" />
  </defs>
  <g
     inkscape:label="Ebene 1"
     inkscape:groupmode="layer"
     id="layer1">
    <path
       id="path846"
       style="opacity:0.977;fill:#ffffff;fill-rule:evenodd;stroke-width:4.20633;fill-opacity:1"
       d="M 29.519101,1.0611179 12.736399,1.0728698 A 1.8331519,1.8331519 149.96076 0 0 11.149513,1.9905086 L 2.7680383,16.530124 a 1.8330717,1.8330717 89.961427 0 0 0.00123,1.833083 l 8.4012127,14.528609 a 1.8331581,1.8331581 89.960258 0 1 0.0013,1.833104 L 2.7910969,49.264493 a 1.8331583,1.8331583 89.96026 0 0 0.00127,1.833104 l 8.4012091,14.528605 a 1.8330367,1.8330367 29.960543 0 0 1.58812,0.915444 l 16.782701,-0.01176 a 1.833037,1.833037 29.960538 0 1 1.58812,0.915444 l 8.401212,14.528605 a 1.833018,1.833018 29.96028 0 0 1.58812,0.915434 l 16.782702,-0.01191 a 1.8331041,1.8331041 29.959116 0 1 1.588157,0.915413 l 8.402025,14.528646 a 1.8331041,1.8331041 29.959116 0 0 1.588157,0.915413 l 16.782697,-0.01191 a 1.8330863,1.8330863 149.95934 0 0 1.586849,-0.91767 L 96.2531,83.767796 A 1.8331568,1.8331568 89.960271 0 0 96.2518,81.934692 L 87.850617,67.406087 a 1.8331212,1.8331212 89.960752 0 1 -0.0013,-1.833095 l 8.381518,-14.540478 a 1.8329858,1.8329858 89.95892 0 0 -0.0013,-1.833061 l -8.40198,-14.52779 a 1.8332693,1.8332693 29.960017 0 0 -1.588179,-0.915458 l -16.782701,0.01099 a 1.8331831,1.8331831 29.961184 0 1 -1.588141,-0.91548 L 59.467396,18.323967 a 1.8330676,1.8330676 29.959621 0 0 -1.588141,-0.915422 l -16.782702,0.0119 A 1.833027,1.833027 29.960171 0 1 39.508429,16.505017 L 31.107225,1.9765598 A 1.8330462,1.8330462 29.960432 0 0 29.519101,1.0611179 Z"
       inkscape:path-effect="#path-effect1021"
       inkscape:original-d="M 30.577434,1.0603768 11.678066,1.0736109 2.2394855,17.447022 11.700272,33.808001 2.2625815,50.181412 l 9.4607825,16.360975 18.899367,-0.01324 9.460786,16.360975 18.899368,-0.01341 9.461673,16.360974 18.899363,-0.01341 L 96.781616,82.850877 87.32083,66.489902 96.75941,50.115604 87.297738,33.755512 68.398371,33.767887 58.937588,17.407794 40.03822,17.4212 Z" />
  </g>
</svg>
