<?xml version="1.0" encoding="UTF-8" standalone="no"?>
<!-- Created with Inkscape (http://www.inkscape.org/) -->

<svg
   width="100mm"
   height="100mm"
   viewBox="0 0 100 100"
   version="1.1"
   id="svg5"
   inkscape:version="1.1.1 (3bf5ae0d25, 2021-09-20)"
   sodipodi:docname="strip.svg"
   xmlns:inkscape="http://www.inkscape.org/namespaces/inkscape"
   xmlns:sodipodi="http://sodipodi.sourceforge.net/DTD/sodipodi-0.dtd"
   xmlns="http://www.w3.org/2000/svg"
   xmlns:svg="http://www.w3.org/2000/svg">
  <sodipodi:namedview
     id="namedview7"
     pagecolor="#ffffff"
     bordercolor="#cccccc"
     borderopacity="1"
     inkscape:pageshadow="0"
     inkscape:pageopacity="1"
     inkscape:pagecheckerboard="0"
     inkscape:document-units="mm"
     showgrid="false"
     width="100mm"
     inkscape:zoom="1.5215769"
     inkscape:cx="186.64847"
     inkscape:cy="203.4074"
     inkscape:window-width="1920"
     inkscape:window-height="1006"
     inkscape:window-x="0"
     inkscape:window-y="0"
     inkscape:window-maximized="1"
     inkscape:current-layer="layer1" />
  <defs
     id="defs2">
    <inkscape:path-effect
       effect="fillet_chamfer"
       id="path-effect1021"
       is_visible="true"
       lpeversion="1"
       satellites_param="F,0,0,1,0,1.0583333,0,1 @ F,0,0,1,0,1.0583333,0,1 @ F,0,0,1,0,1.0583333,0,1 @ F,0,0,1,0,1.0583333,0,1 @ F,0,0,1,0,1.0583333,0,1 @ F,0,0,1,0,1.0583333,0,1 @ F,0,0,1,0,1.0583333,0,1 @ F,0,0,1,0,1.0583333,0,1 @ F,0,0,1,0,1.0583333,0,1 @ F,0,0,1,0,1.0583333,0,1 @ F,0,0,1,0,1.0583333,0,1 @ F,0,0,1,0,1.0583333,0,1 @ F,0,0,1,0,1.0583333,0,1 @ F,0,0,1,0,1.0583333,0,1 @ F,0,0,1,0,1.0583333,0,1 @ F,0,0,1,0,1.0583333,0,1 @ F,0,0,1,0,1.0583333,0,1 @ F,0,0,1,0,1.0583333,0,1"
       unit="px"
       method="auto"
       mode="F"
       radius="4"
       chamfer_steps="1"
       flexible="false"
       use_knot_distance="true"
       apply_no_radius="true"
       apply_with_radius="true"
       only_selected="false"
       hide_knots="false" />
    <inkscape:path-effect
       effect="bend_path"
       id="path-effect2111"
       is_visible="true"
       lpeversion="1"
       bendpath="M 5.6567891,51.483927 C 64.816964,17.559888 44.083158,83.393085 95.775625,45.917264"
       prop_scale="1"
       scale_y_rel="false"
       vertical="false"
       hide_knot="false"
       bendpath-nodetypes="cc" />
  </defs>
  <g
     inkscape:label="Ebene 1"
     inkscape:groupmode="layer"
     id="layer1">
    <path
       id="rect1677"
       style="opacity:0.977;fill:#ffffff;fill-rule:evenodd;stroke-width:10.0743;fill-opacity:1"
       d="m 4.3118987,43.934914 c -1.3107605,0.728397 -1.6278784,2.534195 -0.7652582,4.036952 l 4.078667,7.105379 c 0.8635851,1.504437 2.5119995,2.172701 3.6921665,1.523301 5.033421,-2.7697 10.031849,-5.170837 15.106083,-6.620731 3.670914,-1.002316 7.15903,-1.651455 10.187613,-1.224941 2.122872,0.220339 4.277673,0.993896 6.221839,2.147158 1.84844,1.057607 3.749997,2.718462 5.943415,4.587857 2.064208,1.832242 4.50425,3.941707 7.606466,5.885827 l 5e-6,3e-6 c 3.31188,2.049244 7.195157,3.365321 11.394081,3.666693 5.465924,0.199642 10.36668,-1.034803 14.465635,-2.834398 5.740635,-2.406078 10.858275,-5.534174 15.538876,-8.829236 1.227304,-0.864001 1.347685,-2.692564 0.331345,-4.09568 l -4.80664,-6.635848 c -1.017712,-1.405012 -2.73061,-1.894617 -3.834586,-1.124623 -4.238639,2.956362 -8.422438,5.580965 -12.737355,7.31876 -3.058518,1.149985 -5.837006,2.029431 -8.098833,1.769399 -1.502635,-0.03778 -3.164709,-0.658697 -4.730473,-1.58122 l -10e-7,-1e-6 C 62.215745,48.054454 60.428466,46.422122 58.256771,44.575139 56.022753,42.598946 53.431892,40.438916 50.245444,38.489758 46.632595,36.32445 42.550739,34.900049 38.242442,34.390066 l -6e-6,-10e-7 C 32.526095,33.823506 27.141402,34.635651 22.365093,36.104023 15.84365,38.045693 9.8628513,40.850218 4.3118987,43.934914 Z M 9.2608826,43.34941 c 2.2659844,-1.146251 5.1702944,0.224501 6.3989064,2.958331 1.2286,2.733835 0.557864,5.696657 -1.485453,6.734795 C 12.131421,54.080765 9.3058956,52.872464 7.8544165,50.246359 6.4055886,47.625025 6.958749,44.513648 9.2608826,43.34941 Z M 31.622568,36.126488 c 2.821257,-0.230121 5.036685,2.371956 4.820945,5.355293 -0.21367,2.954363 -2.067489,4.468108 -3.95244,4.6436 -2.042028,0.190384 -4.09422,-1.000594 -4.720472,-3.940748 -0.621548,-2.918132 0.885366,-5.816449 3.851967,-6.058145 z m 23.636763,8.243778 c 0.621641,0.52192 1.114551,1.223081 1.43375,2.005154 0,0 0,0 0,0 0.693284,1.650134 0.598857,3.765549 -0.706402,5.318822 -1.341519,1.596399 -3.619523,2.16159 -5.538529,1.870985 0,0 -10e-7,0 -10e-7,0 -0.868045,-0.123052 -1.636211,-0.417812 -2.181533,-0.876919 -1.604212,-1.350274 -2.360617,-4.777142 -0.761621,-7.205582 1.676668,-2.546365 5.644921,-2.883852 7.754336,-1.11246 z m 14.916456,8.863953 c 1.842776,-0.113701 3.841053,0.979211 4.581549,3.889743 0.730989,2.873256 -0.786995,5.529311 -3.984618,5.728521 -1.035769,0.06442 -2.026157,-0.175992 -2.826567,-0.654147 -1.570468,-0.952855 -2.199053,-2.709407 -1.8234,-4.636728 0.367267,-1.884219 1.414374,-3.153117 2.324129,-3.781224 0.525852,-0.328349 1.098821,-0.507178 1.728907,-0.546165 z m 17.452767,-7.465882 c 1.925832,-1.253643 4.483123,-0.920429 6.210069,1.53407 1.722966,2.44887 1.513241,5.604694 -0.6624,7.012693 -2.141166,1.385306 -5.185012,0.323697 -6.682263,-2.271241 -1.492872,-2.587381 -0.744409,-5.051991 1.134594,-6.275522 z"
       inkscape:original-d="m 2.0532297,39.187871 c -1.73477778,0 -3.131945,1.397184 -3.131945,3.131944 v 8.193247 c 0,1.734774 1.39716722,3.131944 3.131945,3.131944 H 118.09137 c 1.73477,0 3.13091,-1.39717 3.13091,-3.131944 v -8.193247 c 0,-1.73476 -1.39614,-3.131939 -3.13091,-3.131944 z m 5.4048938,1.802327 c 2.9550125,-4.24e-4 5.3507465,2.429342 5.3507535,5.426762 -9e-6,2.997419 -2.395743,5.427185 -5.3507535,5.42676 -2.9546016,-1.61e-4 -5.3496977,-2.429756 -5.3497063,-5.42676 7.2e-6,-2.997005 2.3951032,-5.4266 5.3497063,-5.426762 z m 26.4007925,0 c 2.954606,1.56e-4 5.349704,2.429752 5.349719,5.426762 -1.5e-5,2.997009 -2.395113,4.621693 -5.349719,4.621847 -2.955009,4.23e-4 -5.350739,-1.62443 -5.350748,-4.621847 7e-6,-2.997418 2.395739,-5.427183 5.350748,-5.426762 z m 26.399753,0 c 2.954606,1.65e-4 6.448463,2.077254 6.448477,5.074257 -1.4e-5,2.997003 -3.493871,5.779101 -6.448477,5.779265 -2.955007,4.2e-4 -6.427965,-2.277004 -6.427979,-5.274421 1.4e-5,-2.997418 3.472972,-5.579521 6.427979,-5.579101 z m 26.399752,0.809517 c 2.954605,1.65e-4 5.349689,1.62024 5.349703,4.617245 -1.4e-5,2.997003 -2.395098,5.064053 -5.349703,5.064216 -2.954606,-1.55e-4 -5.349704,-2.067207 -5.349719,-5.064216 1.5e-5,-2.99701 2.395113,-4.617089 5.349719,-4.617245 z m 26.399749,-0.13116 c 2.95462,1.64e-4 5.3497,1.751395 5.34971,4.748401 -1e-5,2.997003 -2.39509,5.426595 -5.34971,5.42676 -2.9546,-1.56e-4 -5.3497,-2.429752 -5.34971,-5.42676 1e-5,-2.997011 2.39511,-4.748245 5.34971,-4.748401 z"
       inkscape:path-effect="#path-effect2111"
       sodipodi:nodetypes="ssssssscscscsccscsccscsccscsccscsc" />
  </g>
</svg>
